PathFileType  4	(X/Y/Z) C:\Users\antoi\Documents\MyRepositories\mobilecap\ResultsAnalysis
DataRate	CameraRate	NumFrames	NumMarkers	Units	OrigDataRate	OrigDataStartFrame	OrigNumFrames
100.0	100.0	6	51	mm	100.0	52	138
Frame#	Time	r_knee			r_shank_antsup			r_ankle			r_calc			r_5meta			r_toe			L_knee			L_shank_antsup			L_ankle			L_calc			L_5meta			L_toe			r_sh2			r_sh3			r_sh4			L_sh2			L_sh3			r_thigh1			r_thigh2			r_thigh3			r_thigh4			r_thigh5			L_thigh1			L_thigh2			L_thigh3			L_thigh4			r.ASIS			r.PSIS			L.ASIS			L.PSIS			C7			R_Shoulder			L_Shoulder			R_Sternum			L_Sternum			R_humerus			R_elbow_med			R_elbow_lat			R_forearm			R_wrist_radius			R_wrist_ulna			L_humerus			L_elbow_med			L_elbow_lat			L_forearm			L_wrist_radius			L_wrist_ulna			R_HJC			L_HJC			R_HJC_reg			L_HJC_reg			
		X1	Y1	Z1	X2	Y2	Z2	X3	Y3	Z3	X4	Y4	Z4	X5	Y5	Z5	X6	Y6	Z6	X7	Y7	Z7	X8	Y8	Z8	X9	Y9	Z9	X10	Y10	Z10	X11	Y11	Z11	X12	Y12	Z12	X13	Y13	Z13	X14	Y14	Z14	X15	Y15	Z15	X16	Y16	Z16	X17	Y17	Z17	X18	Y18	Z18	X19	Y19	Z19	X20	Y20	Z20	X21	Y21	Z21	X22	Y22	Z22	X23	Y23	Z23	X24	Y24	Z24	X25	Y25	Z25	X26	Y26	Z26	X27	Y27	Z27	X28	Y28	Z28	X29	Y29	Z29	X30	Y30	Z30	X31	Y31	Z31	X32	Y32	Z32	X33	Y33	Z33	X34	Y34	Z34	X35	Y35	Z35	X36	Y36	Z36	X37	Y37	Z37	X38	Y38	Z38	X39	Y39	Z39	X40	Y40	Z40	X41	Y41	Z41	X42	Y42	Z42	X43	Y43	Z43	X44	Y44	Z44	X45	Y45	Z45	X46	Y46	Z46	X47	Y47	Z47	X48	Y48	Z48	X49	Y49	Z49	X50	Y50	Z50	X51	Y51	Z51	

52	0.51000000	304.47918	536.99017	-117.38727	298.24651	407.20911	-135.52071	117.68333	114.16570	-178.27265	52.09468	87.01954	-231.58511	233.89571	34.44241	-114.45792	282.60223	56.15534	-180.66581	572.33199	532.35258	-419.39537	653.38644	466.19186	-410.29850	762.76068	116.96328	-405.14466	727.05825	65.32408	-344.57227	920.71652	128.25880	-440.58612	934.50108	173.97526	-379.67730	270.79547	300.18406	-163.07153	231.18174	413.25722	-97.80083	206.22695	299.19597	-107.99118	579.69077	423.06907	-441.75875	659.51400	331.72967	-458.88508	473.17503	733.51058	-109.97509	444.11151	627.44990	-132.14104	399.03672	605.32951	-86.72484	379.29109	742.72374	-45.46241	350.93554	631.71737	-74.21883	560.95978	788.51380	-431.43379	610.95834	660.53430	-420.53144	463.40178	745.97095	-469.16048	512.52072	617.46571	-451.30182	500.33596	1020.88547	-103.58593	296.86703	1057.80342	-196.38548	507.65366	1017.33913	-368.34332	295.16167	1055.64076	-294.75460	376.94070	1554.38337	-236.24739	463.55777	1484.35172	-58.81884	427.77025	1503.15070	-420.40356	517.54946	1474.71683	-225.94352	510.64776	1471.36838	-272.94157	496.27712	1321.51667	13.26611	442.63737	1089.72701	-7.50681	473.47431	1119.29840	63.15744	606.05636	1005.84804	45.78999	673.69372	904.28636	42.56417	649.89295	885.69973	74.55278	378.91000	1339.48858	-510.77845	266.24565	1147.26453	-461.37929	280.59145	1165.20902	-539.95700	342.68945	1009.99788	-561.63527	333.71308	895.58822	-600.26876	292.97055	906.15757	-624.08655	416.44501	942.25976	-141.34225	425.69300	928.36627	-354.08078	428.94776	944.01043	-138.26744	425.91714	940.17020	-313.01928	
53	0.52000000	314.92930	535.63895	-117.22653	306.45987	405.54915	-135.27716	119.17734	116.50075	-177.71162	52.97193	90.43476	-230.90020	234.20981	34.33726	-114.20352	283.14122	55.86220	-180.43490	587.83508	531.22386	-419.34142	667.94949	464.01149	-408.97459	773.76286	114.08769	-403.38856	736.75014	62.18343	-343.90636	932.81008	124.62649	-435.22773	945.19504	170.27289	-373.86371	276.63602	299.20838	-162.77440	239.57653	413.04724	-97.44437	212.09936	299.58208	-107.59639	594.41199	421.71350	-441.79177	673.50605	329.73820	-457.89431	485.44318	731.12506	-109.63865	455.46959	624.94496	-131.24876	410.07354	603.59648	-86.04564	391.00184	741.13956	-45.71075	362.04273	629.89753	-73.99613	574.62681	787.88765	-430.05637	625.66934	660.25755	-418.24331	478.31601	744.33851	-470.10054	528.49389	616.40474	-451.64509	512.80582	1018.35195	-103.79442	309.64257	1055.10280	-197.52896	520.25003	1014.51680	-368.82903	307.73483	1052.91312	-295.78418	390.25020	1551.98665	-237.68034	476.53391	1481.58753	-59.93125	441.12355	1499.85339	-421.83467	530.54954	1471.60057	-227.02169	523.87340	1468.42367	-274.06192	509.10216	1318.70656	11.96750	456.20685	1086.86082	-8.63822	486.58563	1116.55522	62.08398	619.85318	1003.81484	45.17524	688.01636	902.72485	42.11730	664.03916	883.92862	74.06350	392.94297	1335.51574	-511.54866	281.11185	1143.01325	-461.73680	295.38790	1161.02553	-540.35109	356.44946	1005.55360	-561.99471	346.41524	891.11888	-600.50712	305.98288	902.10602	-624.54259	428.87152	939.68995	-141.90516	438.50219	925.52404	-354.61346	441.70417	941.27081	-138.34230	438.30300	937.37528	-313.27130	
54	0.53000000	326.02535	534.22773	-116.97733	315.18440	403.86193	-135.00467	120.92353	119.21514	-176.92773	54.07512	94.42982	-229.96999	234.57473	34.21170	-113.89864	283.79789	55.54718	-180.16405	604.33330	530.63311	-419.27663	683.07797	461.46841	-407.40970	781.08034	110.19889	-401.34380	742.25614	58.47031	-343.04698	941.29637	118.20348	-429.61258	952.88249	163.30571	-367.64317	282.85247	298.31317	-162.44493	248.58288	412.88078	-96.99277	218.47980	300.11536	-107.08176	609.28167	420.77055	-441.81210	686.35792	327.12201	-456.61203	498.07827	728.93167	-109.58589	467.36881	622.57643	-130.59582	421.65817	601.92954	-85.47862	403.13711	739.62264	-46.08334	373.74166	628.14529	-73.85965	589.23031	788.28015	-428.80662	641.74196	661.25440	-416.10555	494.05486	743.24363	-470.72276	546.04254	616.08961	-451.74690	525.64053	1015.91948	-104.27111	322.69602	1052.62697	-198.49536	532.94698	1012.18244	-369.66536	320.47354	1050.45597	-296.58264	403.63639	1549.82456	-239.21258	489.61089	1479.06880	-61.13389	454.58931	1496.79183	-423.37032	543.67972	1468.75313	-228.20091	537.19287	1465.71860	-275.28407	521.91594	1316.08666	10.64724	469.56150	1084.17931	-10.06487	499.40949	1114.00180	60.78785	633.23496	1001.81627	44.43959	701.78888	901.11252	41.62310	677.59609	882.13117	73.51139	407.33165	1331.68285	-512.35445	296.31311	1138.90300	-462.18420	310.61715	1156.94314	-540.84155	370.76881	1001.22369	-562.25804	359.55494	886.63125	-600.65322	319.71272	898.12789	-624.94885	441.71307	937.25344	-142.68760	451.38143	923.12497	-355.39709	454.77746	938.79026	-138.64928	450.80130	934.91700	-313.79949	
55	0.54000000	337.75632	532.76006	-116.64498	324.41145	402.16127	-134.70417	122.97105	122.35100	-175.96071	55.46073	99.06347	-228.84637	235.00868	34.08364	-113.56039	284.56420	55.20347	-179.85184	621.24515	530.32485	-419.10655	698.33467	458.61581	-405.62228	785.71340	105.81029	-399.14399	744.77293	54.67560	-342.09130	947.11214	109.88973	-423.94777	958.38926	154.11574	-361.25528	289.40346	297.50200	-162.09313	258.17590	412.76930	-96.46531	225.35543	300.81468	-106.47534	624.03210	420.03897	-441.75654	698.17947	324.00409	-455.05831	510.99005	726.96734	-109.77680	479.75120	620.40627	-130.20375	433.77689	600.34953	-85.07864	415.63444	738.19490	-46.54869	385.98192	626.50474	-73.80249	604.54527	789.21005	-427.77729	658.65705	662.92361	-414.33081	510.23950	742.52906	-470.99172	564.39467	616.19592	-451.58445	538.92925	1013.62964	-105.06717	336.04614	1050.42760	-199.24995	545.93221	1010.44582	-370.88702	333.46763	1048.27533	-297.13689	417.10352	1547.90875	-240.84900	502.81736	1476.85642	-62.44866	468.16906	1494.02222	-425.00915	556.95916	1466.25412	-229.50359	550.61063	1463.30893	-276.62737	534.74463	1313.72550	9.32507	482.66691	1081.77782	-11.76369	511.93821	1111.70803	59.28383	646.18312	999.90381	43.57943	714.99645	899.49769	41.06847	690.57049	880.35521	72.87155	422.05150	1328.07415	-513.19695	311.80297	1135.02329	-462.70114	326.19096	1153.04486	-541.41251	385.65915	997.11399	-562.40847	373.12868	882.18124	-600.68667	334.21931	894.29750	-625.27398	455.08980	934.98579	-143.72057	464.46496	921.25508	-356.46439	468.21163	936.70370	-139.25472	463.58301	932.85005	-314.66289	
56	0.55000000	350.12720	531.25877	-116.24397	334.15165	400.48219	-134.37076	125.38545	125.96381	-174.87432	57.21287	104.40573	-227.61461	235.53952	33.98324	-113.21230	285.42907	54.82422	-179.50120	637.99086	530.10999	-418.78065	713.29372	455.60966	-403.72485	788.86933	101.49384	-396.94715	745.67693	51.36728	-341.14878	951.29996	100.67525	-418.46334	962.63429	143.87204	-354.99865	296.27620	296.79465	-161.72306	268.32922	412.74263	-95.88431	232.71439	301.72151	-105.81587	638.39442	419.37335	-441.55424	709.16586	320.63978	-453.30523	524.12390	725.26093	-110.14078	492.56955	618.49220	-130.04612	446.42687	598.88974	-84.85752	428.45525	736.88891	-47.07939	398.71655	625.01118	-73.81448	620.28214	790.23895	-427.09316	675.87240	664.69850	-413.14062	526.52713	742.04608	-470.97033	582.73147	616.43901	-451.13802	552.69466	1011.52535	-106.18944	349.69929	1048.54354	-199.81392	559.33345	1009.35745	-372.44829	346.77989	1046.38283	-297.49832	430.65176	1546.25119	-242.59650	516.16640	1474.99729	-63.89489	481.86494	1491.59196	-426.75042	570.38711	1464.15925	-230.94632	564.13268	1461.24488	-278.10612	547.60065	1311.67409	7.98770	495.50120	1079.73905	-13.70193	524.17608	1109.72946	57.59046	658.69007	998.11893	42.59661	727.63360	897.91895	40.44271	702.98014	878.63991	72.12029	437.05393	1324.76927	-514.09012	327.52923	1131.45114	-463.28059	342.02679	1149.40092	-542.05452	401.13359	993.32160	-562.43209	387.23604	877.86571	-600.56242	349.55300	890.67534	-625.48261	469.03573	932.92582	-145.00766	477.86051	919.95444	-357.81470	482.01653	935.10120	-140.17796	476.76040	931.21811	-315.85084	
57	0.56000000	363.18017	529.76242	-115.78732	344.44582	398.87912	-133.99149	128.25397	130.11925	-173.74706	59.45364	110.53140	-226.38401	236.19437	33.95066	-112.87917	286.38525	54.40102	-179.11984	654.08751	529.89098	-418.31360	727.67784	452.68796	-401.88729	791.70914	97.72302	-394.91247	746.22828	49.04603	-340.31218	954.77144	91.37437	-413.43117	966.46078	133.55552	-349.23449	303.51866	296.23521	-161.32681	279.03578	412.84999	-95.27155	240.56416	302.89810	-105.14479	652.20535	418.72038	-441.16699	719.61972	317.36835	-451.49149	537.48052	723.83081	-110.59293	505.81708	616.88134	-130.06093	459.62870	597.58297	-84.78462	441.60427	735.74055	-47.65753	411.93269	623.68870	-73.88277	636.14172	791.05481	-426.90325	692.88556	666.14506	-412.70878	542.62750	741.69476	-470.77253	600.32577	616.62310	-450.39538	566.89746	1009.65742	-107.59153	363.64981	1047.00378	-200.25929	573.16912	1008.89383	-374.22859	360.44080	1044.81393	-297.77407	444.28025	1544.87336	-244.46282	529.65006	1473.52619	-65.48453	495.67838	1489.53954	-428.59420	583.95528	1462.50425	-232.53444	577.76634	1459.57158	-279.72504	560.48461	1309.96769	6.59118	508.06537	1078.11927	-15.84487	536.13697	1108.10673	55.72520	670.75754	996.49282	41.49670	739.70067	896.40406	39.73932	714.84469	877.01660	71.24013	452.27198	1321.83836	-515.05805	343.43407	1128.25003	-463.93017	358.05987	1146.06783	-542.76606	417.19690	989.92612	-562.31959	402.10485	873.83358	-600.21299	365.74619	887.30707	-625.53693	483.48890	931.12334	-146.51620	491.61541	919.21087	-359.40596	496.16086	933.99826	-141.39295	490.36990	930.05079	-317.29322	
